<svg width="69" height="67" viewBox="0 0 69 67" fill="none" xmlns="http://www.w3.org/2000/svg">
<path d="M51.7105 58.7621L48.3887 65.2363L50.4171 66.2556L53.475 60.2932L66.4223 58.2829C66.57 58.2599 66.7117 58.2083 66.8393 58.1311C66.9668 58.0539 67.0777 57.9525 67.1656 57.8329C67.2536 57.7133 67.3168 57.5776 67.3516 57.4338C67.3865 57.29 67.3923 57.1408 67.3688 56.9948L65.3097 44.1971L67.7442 41.793L66.1368 40.2L63.2927 43.0125C63.1654 43.1381 63.0701 43.2918 63.0145 43.461C62.959 43.6301 62.9447 43.8099 62.973 43.9856L64.9434 56.2354L52.5433 58.1602C52.3663 58.1886 52.1987 58.2579 52.054 58.3625C51.9093 58.4671 51.7916 58.604 51.7105 58.7621Z" fill="#40BEE7"/>
<path d="M4.12584 17.5073L3.15718 11.3392L15.42 9.38086C15.5958 9.35269 15.7625 9.2825 15.9065 9.17605C16.0504 9.0696 16.1675 8.92993 16.2481 8.76852L20.1002 1.03698L18.0931 0L14.493 7.21076L1.69464 9.2561C1.54855 9.27951 1.40842 9.33199 1.28228 9.41055C1.15615 9.48911 1.04647 9.59219 0.959532 9.71391C0.872594 9.83564 0.8101 9.9736 0.775624 10.1199C0.741148 10.2662 0.735367 10.418 0.758612 10.5666L1.8994 17.8667L4.12584 17.5073Z" fill="#40BEE7"/>
<path d="M2.33154 20.3003L4.60729 19.9387L4.97345 22.2429L2.6977 22.6045L2.33154 20.3003Z" fill="#40BEE7"/>
<path d="M60.4387 25.2311L62.1509 14.299C62.1744 14.1484 62.1685 13.9947 62.1335 13.8465C62.0984 13.6983 62.0349 13.5585 61.9466 13.4353C61.8583 13.312 61.7469 13.2077 61.6188 13.1282C61.4907 13.0487 61.3484 12.9957 61.2001 12.9721L50.4274 11.2536L45.4931 1.3795C45.4254 1.24328 45.3318 1.12198 45.2178 1.02255C45.1038 0.923117 44.9716 0.847524 44.8288 0.800104C44.5399 0.706366 44.2262 0.731756 43.9556 0.87079L34.2444 5.91736L24.5333 0.871949C24.3996 0.802543 24.2537 0.760613 24.1039 0.748565C23.9542 0.736517 23.8036 0.754586 23.6608 0.801738C23.518 0.848889 23.3857 0.924196 23.2716 1.02334C23.1575 1.12249 23.0638 1.24352 22.9958 1.3795L18.0615 11.2525L7.28768 12.971C7.13946 12.9947 6.9973 13.0478 6.86932 13.1273C6.74135 13.2069 6.63008 13.3112 6.54187 13.4345C6.45367 13.5577 6.39026 13.6974 6.35529 13.8455C6.32031 13.9937 6.31444 14.1474 6.33803 14.2978L8.05015 25.2299L0.335333 33.0518C0.229037 33.1595 0.144703 33.2873 0.0871612 33.4281C0.0296192 33.5689 0 33.7198 0 33.8722C0 34.0247 0.0296192 34.1756 0.0871612 34.3164C0.144703 34.4571 0.229037 34.585 0.335333 34.6927L8.04901 42.5134L6.33689 53.4455C6.31331 53.596 6.31922 53.7498 6.35427 53.898C6.38932 54.0462 6.45282 54.1859 6.54114 54.3092C6.62946 54.4324 6.74086 54.5368 6.86897 54.6163C6.99707 54.6957 7.13936 54.7488 7.28768 54.7723L18.0603 56.4908L22.9958 66.365C23.0635 66.5012 23.1571 66.6225 23.2711 66.7219C23.385 66.8214 23.5173 66.897 23.6601 66.9444C23.7742 66.9812 23.8931 66.9999 24.0128 67C24.1937 66.9999 24.372 66.9567 24.5333 66.8737L34.2444 61.8271L43.9556 66.8725C44.0893 66.9419 44.2352 66.9839 44.385 66.9959C44.5347 67.008 44.6853 66.9899 44.8281 66.9427C44.9709 66.8956 45.1032 66.8203 45.2173 66.7211C45.3314 66.622 45.4251 66.501 45.4931 66.365L50.4274 56.492L61.2012 54.7735C61.3494 54.7498 61.4916 54.6967 61.6196 54.6171C61.7475 54.5376 61.8588 54.4332 61.947 54.31C62.0352 54.1868 62.0986 54.0471 62.1336 53.8989C62.1686 53.7508 62.1744 53.5971 62.1509 53.4467L60.4387 42.5146L68.1536 34.6927C68.2598 34.585 68.3442 34.4571 68.4017 34.3164C68.4593 34.1756 68.4889 34.0247 68.4889 33.8722C68.4889 33.7198 68.4593 33.5689 68.4017 33.4281C68.3442 33.2873 68.2598 33.1595 68.1536 33.0518L60.4387 25.2311ZM58.4127 41.2886C58.285 41.418 58.1894 41.5763 58.1336 41.7506C58.0779 41.9248 58.0636 42.11 58.092 42.2909L59.7162 52.6599L49.496 54.2903C49.3177 54.3188 49.1485 54.3899 49.0025 54.4976C48.8565 54.6054 48.7377 54.7468 48.6559 54.9102L43.9761 64.2757L34.7649 59.4898C34.6038 59.406 34.4254 59.3623 34.2444 59.3623C34.0634 59.3623 33.885 59.406 33.724 59.4898L24.5128 64.2757L19.833 54.9102C19.7511 54.7467 19.6321 54.6052 19.4859 54.4974C19.3396 54.3896 19.1703 54.3186 18.9917 54.2903L8.77152 52.6633L10.3969 42.2944C10.4253 42.1135 10.411 41.9283 10.3553 41.7541C10.2995 41.5798 10.2039 41.4215 10.0762 41.292L2.75855 33.8722L10.0762 26.4559C10.2039 26.3265 10.2995 26.1681 10.3553 25.9939C10.411 25.8197 10.4253 25.6345 10.3969 25.4536L8.77266 15.0811L18.9929 13.4507C19.1712 13.4222 19.3404 13.3511 19.4864 13.2434C19.6324 13.1356 19.7512 12.9942 19.833 12.8308L24.5128 3.46534L33.724 8.25118C33.885 8.33498 34.0634 8.37868 34.2444 8.37868C34.4254 8.37868 34.6038 8.33498 34.7649 8.25118L43.9761 3.46534L48.6559 12.8308C48.7378 12.9943 48.8567 13.1358 49.003 13.2436C49.1492 13.3514 49.3186 13.4224 49.4972 13.4507L59.7174 15.0811L58.092 25.4501C58.0636 25.631 58.0779 25.8162 58.1336 25.9904C58.1894 26.1647 58.285 26.323 58.4127 26.4524L65.7303 33.8722L58.4127 41.2886Z" fill="#40BEE7"/>
<path d="M19.3555 38.7111H21.5888V40.9445H19.3555V38.7111Z" fill="#40BEE7"/>
<path d="M49.4028 27.0659H39.0486V21.3496C39.0467 19.8341 38.4401 18.3812 37.3617 17.3096C36.2833 16.238 34.8213 15.6351 33.2962 15.6333C33.0397 15.6333 32.7906 15.7185 32.5884 15.8753C32.3862 16.0321 32.2426 16.2515 32.1803 16.4988L29.3846 27.6204C29.2601 28.1154 28.9725 28.5548 28.5676 28.8687C28.1628 29.1825 27.6639 29.3528 27.1504 29.3524H26.3934V28.2091C26.3934 27.9059 26.2722 27.6151 26.0564 27.4007C25.8407 27.1863 25.548 27.0659 25.2429 27.0659H16.0391C15.734 27.0659 15.4414 27.1863 15.2256 27.4007C15.0099 27.6151 14.8887 27.9059 14.8887 28.2091V46.5012C14.8887 46.8044 15.0099 47.0952 15.2256 47.3096C15.4414 47.524 15.734 47.6444 16.0391 47.6444H25.2429C25.548 47.6444 25.8407 47.524 26.0564 47.3096C26.2722 47.0952 26.3934 46.8044 26.3934 46.5012V45.3579H29.5767C32.6996 46.8587 36.1228 47.6403 39.5916 47.6444H44.8009C45.7163 47.6444 46.5942 47.2831 47.2414 46.6399C47.8887 45.9967 48.2523 45.1243 48.2523 44.2147C48.249 43.6238 48.0903 43.0441 47.7922 42.533C48.4769 42.1092 48.9888 41.4586 49.2375 40.696C49.4861 39.9334 49.4554 39.1081 49.1509 38.3658C49.6601 38.235 50.1319 37.9889 50.5294 37.6466C50.9269 37.3043 51.2392 36.8752 51.4419 36.393C51.6446 35.9107 51.7322 35.3883 51.6978 34.8668C51.6634 34.3453 51.5079 33.8388 51.2436 33.3869C51.8768 32.9915 52.3633 32.402 52.6296 31.7075C52.8959 31.013 52.9275 30.2512 52.7196 29.5373C52.5117 28.8234 52.0756 28.1961 51.4772 27.7502C50.8789 27.3044 50.1507 27.0641 49.4028 27.0659ZM24.0924 45.3579H17.1896V29.3524H24.0924V45.3579ZM48.2523 36.2119H42.5V38.4984H45.9514C46.2565 38.4984 46.5492 38.6189 46.7649 38.8333C46.9807 39.0477 47.1019 39.3385 47.1019 39.6417C47.1019 39.9449 46.9807 40.2357 46.7649 40.4501C46.5492 40.6645 46.2565 40.7849 45.9514 40.7849H41.3495V43.0714H44.8009C45.1061 43.0714 45.3987 43.1919 45.6144 43.4063C45.8302 43.6207 45.9514 43.9115 45.9514 44.2147C45.9514 44.5179 45.8302 44.8087 45.6144 45.0231C45.3987 45.2375 45.1061 45.3579 44.8009 45.3579H39.5916C36.3865 45.3527 33.2263 44.6092 30.3591 43.1858C30.1989 43.1086 30.0228 43.0695 29.8448 43.0714H26.3934V31.6389H27.1504C28.1768 31.639 29.1738 31.2981 29.9828 30.6704C30.7918 30.0428 31.3665 29.1643 31.6154 28.1748L34.1671 18.0342C34.9056 18.2255 35.5594 18.6547 36.0263 19.2546C36.4932 19.8545 36.7469 20.5912 36.7476 21.3496V28.2091C36.7476 28.5123 36.8688 28.8031 37.0846 29.0175C37.3003 29.2319 37.593 29.3524 37.8981 29.3524H49.4028C49.7079 29.3524 50.0006 29.4728 50.2163 29.6872C50.4321 29.9016 50.5533 30.1924 50.5533 30.4956C50.5533 30.7988 50.4321 31.0896 50.2163 31.304C50.0006 31.5184 49.7079 31.6389 49.4028 31.6389H43.6505V33.9254H48.2523C48.5575 33.9254 48.8501 34.0458 49.0658 34.2602C49.2816 34.4746 49.4028 34.7654 49.4028 35.0686C49.4028 35.3719 49.2816 35.6627 49.0658 35.8771C48.8501 36.0915 48.5575 36.2119 48.2523 36.2119Z" fill="#40BEE7"/>
</svg>
