<svg width="67" height="67" viewBox="0 0 67 67" fill="none" xmlns="http://www.w3.org/2000/svg">
<path d="M66.0169 65.0337H59.6578V26.1578C59.6578 25.6147 59.2176 25.1744 58.6744 25.1744H48.1852C47.642 25.1744 47.2017 25.6147 47.2017 26.1578V65.0337H39.7282V37.696C39.7282 37.1529 39.288 36.7126 38.7448 36.7126H28.2556C27.7124 36.7126 27.2722 37.1529 27.2722 37.696V65.0337H19.7986V42.9406C19.7986 42.3975 19.3584 41.9572 18.8152 41.9572H8.32597C7.78277 41.9572 7.34256 42.3975 7.34256 42.9406V65.0336H0.983413C0.440213 65.0336 0 65.4739 0 66.017C0 66.56 0.440213 67.0004 0.983413 67.0004H66.0169C66.5601 67.0004 67.0004 66.56 67.0004 66.017C67.0002 65.4739 66.5601 65.0337 66.0169 65.0337ZM17.8318 65.0337H9.30925V43.924H17.8318V65.0337ZM37.7615 65.0337H29.239V38.6794H37.7615V65.0337ZM57.6911 65.0337H49.1686V27.1412H57.6911V65.0337Z" fill="#40BEE7"/>
<path d="M63.8607 0.771475C63.1979 0.1864 62.3158 -0.0861819 61.439 0.0240023L53.0476 1.07298C51.3818 1.28117 50.164 2.84482 50.3724 4.51237C50.583 6.19746 52.1247 7.39836 53.812 7.18767L54.4966 7.10222C44.1973 19.044 31.9531 25.2156 23.3009 28.3173C12.5127 32.1848 4.11577 32.5156 4.03398 32.5184C2.33764 32.5714 0.999202 33.9948 1.0505 35.6913C1.10127 37.3669 2.45345 38.6793 4.12911 38.6793C4.16026 38.6793 4.19153 38.6789 4.22359 38.6778C4.59694 38.6666 13.4982 38.3523 25.2252 34.1736C31.8177 31.8244 38.021 28.7059 43.6625 24.9048C44.1129 24.6015 44.232 23.9901 43.9284 23.5398C43.625 23.0893 43.0139 22.9703 42.5634 23.2738C37.0583 26.9831 31.0028 30.0271 24.565 32.321C13.1261 36.3969 4.52444 36.7011 4.16471 36.7119L4.12911 36.7125C3.52349 36.7125 3.0346 36.2378 3.01628 35.6318C2.9977 35.0181 3.48188 34.5033 4.09587 34.484C4.18172 34.4813 12.8182 34.1643 23.9646 30.1685C33.3027 26.821 46.7203 19.9858 57.6121 6.4334C58.1544 5.75868 57.5811 4.73418 56.7239 4.84162L53.5686 5.23603C53.0216 5.30368 52.4903 4.94526 52.3514 4.41109C52.1845 3.7683 52.6336 3.10667 53.2918 3.02423L61.6835 1.97526C62.3387 1.89242 62.9359 2.42201 62.9359 3.08116V11.4726C62.9359 12.0871 62.436 12.5871 61.8214 12.5871C61.2067 12.5871 60.7069 12.0872 60.7069 11.4726V8.92864C60.7069 8.52677 60.447 8.15094 60.0711 8.00895C59.6829 7.86226 59.2241 7.9854 58.9616 8.30679C55.2887 12.8072 51.1067 16.8796 46.5314 20.4107C46.1016 20.7426 46.0219 21.3601 46.3537 21.7901C46.6856 22.2201 47.3034 22.2995 47.7331 21.9678C51.7185 18.8919 55.4126 15.4162 58.7433 11.6114C58.8161 13.2462 60.1689 14.554 61.8215 14.554C63.5205 14.554 64.9028 13.1718 64.9028 11.4728V3.08142C64.9026 2.19811 64.5229 1.35603 63.8607 0.771475Z" fill="#40BEE7"/>
</svg>
