<svg width="67" height="67" viewBox="0 0 67 67" fill="none" xmlns="http://www.w3.org/2000/svg">
<path d="M51.1512 7.77946H54.5502C55.981 7.77946 57.1448 8.94345 57.1448 10.3741V11.7531C57.1448 13.184 55.9808 14.3479 54.5502 14.3479C52.643 14.3479 51.0913 15.8995 51.0913 17.8068V19.2412C51.0913 19.7832 51.5306 20.2226 52.0727 20.2226C52.6149 20.2226 53.0542 19.7832 53.0542 19.2412V17.8068C53.0542 16.982 53.7252 16.3108 54.5502 16.3108C57.0632 16.3108 59.1077 14.2663 59.1077 11.7531V10.3741C59.1077 7.86112 57.0632 5.81657 54.5502 5.81657H51.1512C50.3056 5.81657 49.6177 5.12864 49.6177 4.28316V0.981445C49.6177 0.439426 49.1784 0 48.6362 0C48.0941 0 47.6548 0.439426 47.6548 0.981445V4.28303C47.6548 6.21098 49.2233 7.77946 51.1512 7.77946Z" fill="#40BEE7"/>
<path d="M46.1235 15.4886C46.791 15.4886 47.3341 16.0317 47.3341 16.6992V18.2958C47.3341 18.8379 47.7734 19.2773 48.3156 19.2773C48.8577 19.2773 49.297 18.8379 49.297 18.2958V16.6992C49.297 14.9494 47.8734 13.5258 46.1235 13.5258C45.456 13.5258 44.9131 12.9827 44.9131 12.3153V10.187C44.9131 9.64499 44.4738 9.20557 43.9316 9.20557C43.3895 9.20557 42.9502 9.64499 42.9502 10.187V12.3153C42.9502 14.065 44.3738 15.4886 46.1235 15.4886Z" fill="#40BEE7"/>
<path d="M53.3813 3.83787C53.9235 3.83787 54.3628 3.39844 54.3628 2.85642V0.990234C54.3628 0.448215 53.9235 0.00878906 53.3813 0.00878906C52.8392 0.00878906 52.3999 0.448215 52.3999 0.990234V2.85642C52.3999 3.39844 52.8392 3.83787 53.3813 3.83787Z" fill="#40BEE7"/>
<path d="M39.8857 59.1879C39.3436 59.1879 38.9043 59.6272 38.9043 60.1694V61.0957C38.9043 61.6379 39.3436 62.0772 39.8857 62.0772C40.4279 62.0772 40.8672 61.6379 40.8672 61.0957V60.1694C40.8672 59.6274 40.4278 59.1879 39.8857 59.1879Z" fill="#40BEE7"/>
<path d="M46.0151 59.1879C45.473 59.1879 45.0337 59.6272 45.0337 60.1694V61.0957C45.0337 61.6379 45.473 62.0772 46.0151 62.0772C46.5573 62.0772 46.9966 61.6379 46.9966 61.0957V60.1694C46.9966 59.6274 46.5572 59.1879 46.0151 59.1879Z" fill="#40BEE7"/>
<path d="M52.1445 59.1879C51.6024 59.1879 51.1631 59.6272 51.1631 60.1694V61.0957C51.1631 61.6379 51.6024 62.0772 52.1445 62.0772C52.6867 62.0772 53.126 61.6379 53.126 61.0957V60.1694C53.126 59.6274 52.6866 59.1879 52.1445 59.1879Z" fill="#40BEE7"/>
<path d="M58.2734 59.1879C57.7313 59.1879 57.292 59.6272 57.292 60.1694V61.0957C57.292 61.6379 57.7313 62.0772 58.2734 62.0772C58.8156 62.0772 59.2549 61.6379 59.2549 61.0957V60.1694C59.2549 59.6274 58.8156 59.1879 58.2734 59.1879Z" fill="#40BEE7"/>
<path d="M66.0186 65.0371H64.7454V58.3142C64.7454 56.7366 63.462 55.4532 61.8844 55.4532H57.9814C57.98 55.4357 55.2327 23.0479 55.2281 22.9945C55.1587 22.1728 54.4582 21.5291 53.6334 21.5291H48.4188C47.5806 21.5291 46.895 22.1589 46.824 22.9942C43.6307 60.6566 46.8876 22.2444 44.8888 45.8115H35.3769V42.4254C35.3769 42.0201 35.1279 41.6566 34.7501 41.5103L32.9043 40.7951C32.3989 40.599 31.8304 40.8502 31.6346 41.3556C31.4388 41.861 31.6898 42.4296 32.1952 42.6253L33.414 43.0976V65.0371H26.3323V59.3879C26.3323 58.8458 25.8929 58.4065 25.3509 58.4065H12.2809C11.7389 58.4065 11.2994 58.8458 11.2994 59.3879V65.0371H4.2176V31.7874L28.2711 41.1053C28.7766 41.3016 29.3451 41.0501 29.5408 40.5447C29.7366 40.0393 29.4856 39.4708 28.9801 39.2751L10.5687 32.1427V25.1096C10.5687 24.5675 10.1293 24.1281 9.58728 24.1281C9.04526 24.1281 8.60584 24.5675 8.60584 25.1096V31.3823L3.59078 29.4396C3.28915 29.3226 2.94865 29.362 2.68157 29.545C2.41449 29.728 2.25484 30.0309 2.25484 30.3548V65.0371H0.981445C0.439426 65.0371 0 65.4764 0 66.0186C0 66.5607 0.439426 67 0.981445 67H66.0186C66.5607 67 67 66.5607 67 66.0186C67 65.4764 66.5607 65.0371 66.0186 65.0371ZM35.377 55.4532V52.1892H44.3477L44.0707 55.4532H35.377ZM56.0113 55.4531H46.0406C46.1867 53.7313 46.5005 50.0324 46.5935 48.9349H49.0639C49.606 48.9349 50.0453 48.4956 50.0453 47.9534C50.0453 47.4113 49.606 46.972 49.0639 46.972H46.76C46.8102 46.379 47.2621 41.0531 47.3129 40.4539H54.739L55.2919 46.972H52.988C52.4458 46.972 52.0065 47.4113 52.0065 47.9534C52.0065 48.4956 52.4458 48.9349 52.988 48.9349H55.4583L56.0113 55.4531ZM54.5725 38.4911H47.4794L48.0323 31.973H54.0197L54.5725 38.4911ZM48.7518 23.492H53.3003L53.8532 30.0101H48.1989L48.7518 23.492ZM44.7224 47.7744L44.5143 50.2263H35.377V47.7744H44.7224ZM13.2623 65.0371V60.3694H24.3695V65.0371H13.2623ZM35.377 65.0371V57.4161H61.8843C62.3795 57.4161 62.7824 57.819 62.7824 58.3142V65.0371H35.377Z" fill="#40BEE7"/>
<path d="M8.79671 37.0191C8.49639 36.9131 8.16322 36.9597 7.90333 37.1435C7.64331 37.3275 7.4889 37.6261 7.4889 37.9446V43.5636C7.4889 44.1058 7.92833 44.5451 8.47035 44.5451C9.01237 44.5451 9.45179 44.1058 9.45179 43.5636V39.3314L14.5017 41.1122V51.0867H9.45166V47.4877C9.45166 46.9455 9.01223 46.5063 8.47022 46.5063C7.9282 46.5063 7.48877 46.9455 7.48877 47.4877V52.0682C7.48877 52.6103 7.9282 53.0496 8.47022 53.0496H29.1604C29.7024 53.0496 30.1418 52.6103 30.1418 52.0682V45.2412C30.1418 44.825 29.8793 44.454 29.4869 44.3157L8.79671 37.0191ZM16.4644 41.8046L21.1662 43.4627V51.0869H16.4644V41.8046ZM28.1789 51.0869H23.1291V44.155L28.1789 45.9358V51.0869Z" fill="#40BEE7"/>
</svg>
