<svg width="30" height="29" viewBox="0 0 30 29" fill="none" xmlns="http://www.w3.org/2000/svg">
<path d="M10.0008 20.9756H10.0021C10.0032 20.9756 10.0043 20.9753 10.0054 20.9753H25.3151C25.692 20.9753 26.0234 20.6664 26.1269 20.2187L29.5046 5.61377C29.5774 5.2989 29.5264 4.9604 29.367 4.69906C29.2073 4.43771 28.9577 4.28395 28.6927 4.28395H8.05332L7.44969 0.928019C7.36371 0.450697 7.0211 0.111111 6.62528 0.111111H1.55877C1.09236 0.111111 0.714355 0.57811 0.714355 1.15432C0.714355 1.73053 1.09236 2.19753 1.55877 2.19753H5.94799C6.05486 2.79221 8.8366 18.2572 8.99669 19.147C8.09927 19.6289 7.4697 20.7343 7.4697 22.0185C7.4697 23.7441 8.60615 25.1481 10.003 25.1481H25.3151C25.7815 25.1481 26.1595 24.6811 26.1595 24.1049C26.1595 23.5287 25.7815 23.0617 25.3151 23.0617H10.003C9.53742 23.0617 9.15854 22.5936 9.15854 22.0185C9.15854 21.4442 9.53611 20.9769 10.0008 20.9756ZM27.5732 6.37036L24.678 18.8889H10.6802L8.42847 6.37036H27.5732Z" fill="#2FB2E3"/>
<path d="M8.72095 27.0741C8.72095 28.136 9.79845 29 11.1228 29C12.4472 29 13.5247 28.136 13.5247 27.0741C13.5247 26.0121 12.4472 25.1482 11.1228 25.1482C9.79845 25.1482 8.72095 26.0121 8.72095 27.0741ZM11.1228 26.4321C11.5642 26.4321 11.9234 26.7202 11.9234 27.0741C11.9234 27.428 11.5642 27.716 11.1228 27.716C10.6814 27.716 10.3222 27.428 10.3222 27.0741C10.3222 26.7202 10.6814 26.4321 11.1228 26.4321Z" fill="#2FB2E3"/>
<path d="M21.5308 27.0741C21.5308 28.136 22.6083 29 23.9326 29C25.257 29 26.3345 28.136 26.3345 27.0741C26.3345 26.0121 25.257 25.1482 23.9326 25.1482C22.6083 25.1482 21.5308 26.0121 21.5308 27.0741ZM23.9326 26.4321C24.374 26.4321 24.7332 26.7202 24.7332 27.0741C24.7332 27.428 24.374 27.716 23.9326 27.716C23.4912 27.716 23.132 27.428 23.132 27.0741C23.132 26.7202 23.4912 26.4321 23.9326 26.4321Z" fill="#2FB2E3"/>
</svg>
