<svg width="32" height="28" viewBox="0 0 32 28" fill="none" xmlns="http://www.w3.org/2000/svg">
<path d="M10.032 20.2225H10.0334C10.0346 20.2225 10.0358 20.2222 10.037 20.2222H26.5758C26.983 20.2222 27.341 19.9228 27.4529 19.4889L31.1017 5.33335C31.1804 5.02817 31.1253 4.70009 30.953 4.44678C30.7806 4.19348 30.5109 4.04445 30.2247 4.04445H7.92818L7.27609 0.791774C7.18321 0.329138 6.8131 0 6.3855 0H0.912214C0.408358 0 0 0.45263 0 1.01111C0 1.56959 0.408358 2.02222 0.912214 2.02222H5.65382C5.76928 2.59861 8.77436 17.5878 8.9473 18.4501C7.97783 18.9173 7.29771 19.9887 7.29771 21.2333C7.29771 22.9059 8.5254 24.2667 10.0344 24.2667H26.5758C27.0797 24.2667 27.488 23.814 27.488 23.2556C27.488 22.6971 27.0797 22.2444 26.5758 22.2444H10.0344C9.53145 22.2444 9.12214 21.7908 9.12214 21.2333C9.12214 20.6767 9.53002 20.2238 10.032 20.2225ZM29.0153 6.06667L25.8876 18.2H10.766L8.33345 6.06667H29.0153Z" fill="#4F798B"/>
<path d="M8.64917 26.1333C8.64917 27.1626 9.8132 28 11.2439 28C12.6746 28 13.8386 27.1626 13.8386 26.1333C13.8386 25.1041 12.6746 24.2667 11.2439 24.2667C9.8132 24.2667 8.64917 25.1041 8.64917 26.1333ZM11.2439 25.5111C11.7207 25.5111 12.1088 25.7903 12.1088 26.1333C12.1088 26.4764 11.7207 26.7556 11.2439 26.7556C10.7671 26.7556 10.379 26.4764 10.379 26.1333C10.379 25.7903 10.7671 25.5111 11.2439 25.5111Z" fill="#4F798B"/>
<path d="M22.4878 26.1333C22.4878 27.1626 23.6518 28 25.0825 28C26.5132 28 27.6773 27.1626 27.6773 26.1333C27.6773 25.1041 26.5132 24.2667 25.0825 24.2667C23.6518 24.2667 22.4878 25.1041 22.4878 26.1333ZM25.0825 25.5111C25.5594 25.5111 25.9474 25.7903 25.9474 26.1333C25.9474 26.4764 25.5594 26.7556 25.0825 26.7556C24.6057 26.7556 24.2176 26.4764 24.2176 26.1333C24.2176 25.7903 24.6057 25.5111 25.0825 25.5111Z" fill="#4F798B"/>
</svg>
