<svg width="22" height="19" viewBox="0 0 22 19" fill="none" xmlns="http://www.w3.org/2000/svg">
<path d="M6.80741 13.7224H6.80838C6.80918 13.7224 6.80999 13.7222 6.8108 13.7222H18.0336C18.3099 13.7222 18.5528 13.5191 18.6287 13.2246L21.1047 3.61906C21.1581 3.41197 21.1207 3.18934 21.0038 3.01746C20.8868 2.84557 20.7038 2.74444 20.5096 2.74444H5.37984L4.93735 0.537275C4.87432 0.223343 4.62317 0 4.33301 0H0.619002C0.2771 0 0 0.307142 0 0.686111C0 1.06508 0.2771 1.37222 0.619002 1.37222H3.83652C3.91487 1.76334 5.95403 11.9346 6.07138 12.5197C5.41353 12.8367 4.95202 13.5637 4.95202 14.4083C4.95202 15.5433 5.78509 16.4667 6.80902 16.4667H18.0336C18.3755 16.4667 18.6526 16.1595 18.6526 15.7806C18.6526 15.4016 18.3755 15.0944 18.0336 15.0944H6.80902C6.46777 15.0944 6.19002 14.7866 6.19002 14.4083C6.19002 14.0306 6.4668 13.7233 6.80741 13.7224ZM19.6889 4.11667L17.5666 12.35H7.30551L5.65484 4.11667H19.6889Z" fill="#40BEE7"/>
<path d="M5.86914 17.7333C5.86914 18.4318 6.65902 19 7.62985 19C8.60069 19 9.39057 18.4318 9.39057 17.7333C9.39057 17.0349 8.60069 16.4667 7.62985 16.4667C6.65902 16.4667 5.86914 17.0349 5.86914 17.7333ZM7.62985 17.3111C7.95342 17.3111 8.21676 17.5006 8.21676 17.7333C8.21676 17.9661 7.95342 18.1556 7.62985 18.1556C7.30629 18.1556 7.04295 17.9661 7.04295 17.7333C7.04295 17.5006 7.30629 17.3111 7.62985 17.3111Z" fill="#40BEE7"/>
<path d="M15.2595 17.7333C15.2595 18.4318 16.0494 19 17.0202 19C17.9911 19 18.7809 18.4318 18.7809 17.7333C18.7809 17.0349 17.9911 16.4667 17.0202 16.4667C16.0494 16.4667 15.2595 17.0349 15.2595 17.7333ZM17.0202 17.3111C17.3438 17.3111 17.6071 17.5006 17.6071 17.7333C17.6071 17.9661 17.3438 18.1556 17.0202 18.1556C16.6967 18.1556 16.4333 17.9661 16.4333 17.7333C16.4333 17.5006 16.6967 17.3111 17.0202 17.3111Z" fill="#40BEE7"/>
</svg>
