<svg width="13" height="13" viewBox="0 0 13 13" fill="none" xmlns="http://www.w3.org/2000/svg">
<path d="M1.9043 13H6.14453V8.37891H4.62109V6.85547H6.14453V4.95117C6.14453 3.90113 6.99879 3.04688 8.04883 3.04688H9.95312V4.57031H8.42969C8.00965 4.57031 7.66797 4.91199 7.66797 5.33203V6.85547H9.88439L9.63049 8.37891H7.66797V13H11.0957C12.1457 13 13 12.1457 13 11.0957V1.9043C13 0.854256 12.1457 0 11.0957 0H1.9043C0.854256 0 0 0.854256 0 1.9043V11.0957C0 12.1457 0.854256 13 1.9043 13ZM0.761719 1.9043C0.761719 1.27429 1.27429 0.761719 1.9043 0.761719H11.0957C11.7257 0.761719 12.2383 1.27429 12.2383 1.9043V11.0957C12.2383 11.7257 11.7257 12.2383 11.0957 12.2383H8.42969V9.14062H10.2758L10.7836 6.09375H8.42969V5.33203H10.7148V2.28516H8.04883C6.57875 2.28516 5.38281 3.48109 5.38281 4.95117V6.09375H3.85938V9.14062H5.38281V12.2383H1.9043C1.27429 12.2383 0.761719 11.7257 0.761719 11.0957V1.9043Z" fill="#65E8EF"/>
</svg>
