<svg width="31" height="31" viewBox="0 0 31 31" fill="none" xmlns="http://www.w3.org/2000/svg">
<path d="M4.54102 31H26.459C28.9629 31 31 28.9629 31 26.459V4.54102C31 2.03707 28.9629 0 26.459 0H4.54102C2.03707 0 0 2.03707 0 4.54102V26.459C0 28.9629 2.03707 31 4.54102 31ZM1.81641 4.54102C1.81641 3.0387 3.0387 1.81641 4.54102 1.81641H26.459C27.9613 1.81641 29.1836 3.0387 29.1836 4.54102V26.459C29.1836 27.9613 27.9613 29.1836 26.459 29.1836H4.54102C3.0387 29.1836 1.81641 27.9613 1.81641 26.459V4.54102Z" fill="white"/>
<path d="M15.5 23.6733C20.007 23.6733 23.6738 20.0065 23.6738 15.4995C23.6738 10.9926 20.007 7.32568 15.5 7.32568C10.993 7.32568 7.32617 10.9926 7.32617 15.4995C7.32617 20.0065 10.993 23.6733 15.5 23.6733ZM15.5 9.14209C19.0056 9.14209 21.8574 11.9939 21.8574 15.4995C21.8574 19.0051 19.0056 21.8569 15.5 21.8569C11.9944 21.8569 9.14258 19.0051 9.14258 15.4995C9.14258 11.9939 11.9944 9.14209 15.5 9.14209Z" fill="white"/>
<path d="M24.582 9.14209C26.0844 9.14209 27.3066 7.9198 27.3066 6.41748C27.3066 4.91516 26.0844 3.69287 24.582 3.69287C23.0797 3.69287 21.8574 4.91516 21.8574 6.41748C21.8574 7.9198 23.0797 9.14209 24.582 9.14209ZM24.582 5.50928C25.0827 5.50928 25.4902 5.91679 25.4902 6.41748C25.4902 6.91817 25.0827 7.32568 24.582 7.32568C24.0813 7.32568 23.6738 6.91817 23.6738 6.41748C23.6738 5.91679 24.0813 5.50928 24.582 5.50928Z" fill="white"/>
</svg>
