<svg width="13" height="13" viewBox="0 0 13 13" fill="none" xmlns="http://www.w3.org/2000/svg">
<path d="M1.9043 13H11.0957C12.1457 13 13 12.1457 13 11.0957V1.9043C13 0.854256 12.1457 0 11.0957 0H1.9043C0.854256 0 0 0.854256 0 1.9043V11.0957C0 12.1457 0.854256 13 1.9043 13ZM0.761719 1.9043C0.761719 1.27429 1.27429 0.761719 1.9043 0.761719H11.0957C11.7257 0.761719 12.2383 1.27429 12.2383 1.9043V11.0957C12.2383 11.7257 11.7257 12.2383 11.0957 12.2383H1.9043C1.27429 12.2383 0.761719 11.7257 0.761719 11.0957V1.9043Z" fill="#65E8EF"/>
<path d="M6.5 9.92749C8.39001 9.92749 9.92773 8.38977 9.92773 6.49976C9.92773 4.60974 8.39001 3.07202 6.5 3.07202C4.60999 3.07202 3.07227 4.60974 3.07227 6.49976C3.07227 8.38977 4.60999 9.92749 6.5 9.92749ZM6.5 3.83374C7.97008 3.83374 9.16602 5.02968 9.16602 6.49976C9.16602 7.96983 7.97008 9.16577 6.5 9.16577C5.02992 9.16577 3.83398 7.96983 3.83398 6.49976C3.83398 5.02968 5.02992 3.83374 6.5 3.83374Z" fill="#65E8EF"/>
<path d="M10.3086 3.83374C10.9386 3.83374 11.4512 3.32117 11.4512 2.69116C11.4512 2.06116 10.9386 1.54858 10.3086 1.54858C9.67859 1.54858 9.16602 2.06116 9.16602 2.69116C9.16602 3.32117 9.67859 3.83374 10.3086 3.83374ZM10.3086 2.3103C10.5186 2.3103 10.6895 2.48119 10.6895 2.69116C10.6895 2.90113 10.5186 3.07202 10.3086 3.07202C10.0986 3.07202 9.92773 2.90113 9.92773 2.69116C9.92773 2.48119 10.0986 2.3103 10.3086 2.3103Z" fill="#65E8EF"/>
</svg>
