<svg width="19" height="19" viewBox="0 0 19 19" fill="none" xmlns="http://www.w3.org/2000/svg">
<path d="M2.7832 19H16.2168C17.7515 19 19 17.7515 19 16.2168V2.7832C19 1.24853 17.7515 0 16.2168 0H2.7832C1.24853 0 0 1.24853 0 2.7832V16.2168C0 17.7515 1.24853 19 2.7832 19ZM1.11328 2.7832C1.11328 1.86243 1.86243 1.11328 2.7832 1.11328H16.2168C17.1376 1.11328 17.8867 1.86243 17.8867 2.7832V16.2168C17.8867 17.1376 17.1376 17.8867 16.2168 17.8867H2.7832C1.86243 17.8867 1.11328 17.1376 1.11328 16.2168V2.7832Z" fill="#36667B"/>
<path d="M9.5 14.5095C12.2623 14.5095 14.5098 12.262 14.5098 9.49971C14.5098 6.73738 12.2623 4.48994 9.5 4.48994C6.73767 4.48994 4.49023 6.73738 4.49023 9.49971C4.49023 12.262 6.73767 14.5095 9.5 14.5095ZM9.5 5.60323C11.6486 5.60323 13.3965 7.35114 13.3965 9.49971C13.3965 11.6483 11.6486 13.3962 9.5 13.3962C7.35143 13.3962 5.60352 11.6483 5.60352 9.49971C5.60352 7.35114 7.35143 5.60323 9.5 5.60323Z" fill="#36667B"/>
<path d="M15.0664 5.60323C15.9872 5.60323 16.7363 4.85408 16.7363 3.9333C16.7363 3.01253 15.9872 2.26338 15.0664 2.26338C14.1456 2.26338 13.3965 3.01253 13.3965 3.9333C13.3965 4.85408 14.1456 5.60323 15.0664 5.60323ZM15.0664 3.37666C15.3733 3.37666 15.623 3.62643 15.623 3.9333C15.623 4.24018 15.3733 4.48994 15.0664 4.48994C14.7595 4.48994 14.5098 4.24018 14.5098 3.9333C14.5098 3.62643 14.7595 3.37666 15.0664 3.37666Z" fill="#36667B"/>
</svg>
