<svg width="36" height="48" viewBox="0 0 36 48" fill="none" xmlns="http://www.w3.org/2000/svg">
<g filter="url(#filter0_d)">
<path d="M17.9641 6C11.3982 6 6.07446 11.2879 6.07446 17.8111C6.07446 21.1482 9.34798 27.1268 9.34798 27.1268L17.5258 41L26.0584 27.2888C26.0584 27.2888 29.8487 21.5845 29.8487 17.8111C29.8497 11.2879 24.527 6 17.9641 6ZM17.9084 24.3164C14.1479 24.3164 11.102 21.2704 11.102 17.506C11.102 13.7465 14.147 10.7026 17.9084 10.7026C21.6669 10.7026 24.7158 13.7465 24.7158 17.506C24.7158 21.2704 21.6669 24.3164 17.9084 24.3164Z" fill="url(#paint0_linear)"/>
</g>
<defs>
<filter id="filter0_d" x="0.0744629" y="0.1" width="35.7742" height="47" filterUnits="userSpaceOnUse" color-interpolation-filters="sRGB">
<feFlood flood-opacity="0" result="BackgroundImageFix"/>
<feColorMatrix in="SourceAlpha" type="matrix" values="0 0 0 0 0 0 0 0 0 0 0 0 0 0 0 0 0 0 127 0"/>
<feOffset dy="0.1"/>
<feGaussianBlur stdDeviation="3"/>
<feColorMatrix type="matrix" values="0 0 0 0 0.309804 0 0 0 0 0.823529 0 0 0 0 0.917647 0 0 0 0.4 0"/>
<feBlend mode="normal" in2="BackgroundImageFix" result="effect1_dropShadow"/>
<feBlend mode="normal" in="SourceGraphic" in2="effect1_dropShadow" result="shape"/>
</filter>
<linearGradient id="paint0_linear" x1="17.9616" y1="6" x2="17.9616" y2="41" gradientUnits="userSpaceOnUse">
<stop stop-color="#2BADE2"/>
<stop offset="1" stop-color="#63E6EE"/>
</linearGradient>
</defs>
</svg>
