<svg width="28" height="22" viewBox="0 0 28 22" fill="none" xmlns="http://www.w3.org/2000/svg">
<path d="M24.7891 0H3.04428C1.36568 0 0 1.36568 0 3.04428V15.2214C0 16.7524 1.136 18.023 2.60938 18.2347V21.1298C2.60938 21.4828 2.82014 21.7982 3.14631 21.9334C3.2546 21.9782 3.36784 22 3.4801 22C3.70597 22 3.92744 21.9116 4.09422 21.7448L7.5734 18.2657H24.7891C26.4677 18.2657 27.8334 16.9 27.8334 15.2214V3.04428C27.8334 1.36563 26.4677 0 24.7891 0ZM26.9636 15.2214C26.9636 16.4204 25.9881 17.3959 24.7891 17.3959H7.39324C7.27788 17.3959 7.16726 17.4417 7.08571 17.5232L3.47917 21.1294V17.8308C3.47917 17.5906 3.28445 17.3959 3.04428 17.3959C1.84527 17.3959 0.869793 16.4204 0.869793 15.2214V3.04428C0.869793 1.84527 1.84527 0.869793 3.04428 0.869793H24.7891C25.9881 0.869793 26.9636 1.84527 26.9636 3.04428V15.2214Z" fill="white"/>
<path d="M8.84033 7.85441C8.6138 7.93432 8.49491 8.1827 8.57482 8.40922C8.65653 8.64097 8.69801 8.8844 8.69801 9.13284C8.69801 10.3318 7.72253 11.3073 6.52352 11.3073C5.32451 11.3073 4.34904 10.3318 4.34904 9.13284C4.34904 7.93383 5.32451 6.95835 6.52352 6.95835C6.7725 6.95835 7.01648 7 7.2486 7.08203C7.47497 7.1621 7.72351 7.04349 7.80359 6.81701C7.88366 6.59054 7.76499 6.34205 7.53857 6.26198C7.21305 6.14689 6.87155 6.08856 6.52352 6.08856C4.84493 6.08856 3.47925 7.45425 3.47925 9.13284C3.47925 10.8114 4.84493 12.1771 6.52352 12.1771C8.20212 12.1771 9.5678 10.8114 9.5678 9.13284C9.5678 8.78563 9.50969 8.44483 9.39509 8.11991C9.31523 7.89344 9.06685 7.77449 8.84033 7.85441Z" fill="white"/>
<path d="M16.2334 7.85441C16.0069 7.93432 15.888 8.1827 15.9679 8.40922C16.0496 8.64097 16.0911 8.8844 16.0911 9.13284C16.0911 10.3318 15.1156 11.3073 13.9166 11.3073C12.7176 11.3073 11.7421 10.3318 11.7421 9.13284C11.7421 7.93383 12.7176 6.95835 13.9166 6.95835C14.1656 6.95835 14.4095 7 14.6417 7.08203C14.868 7.1621 15.1166 7.04349 15.1967 6.81701C15.2767 6.59054 15.1581 6.34205 14.9316 6.26198C14.6061 6.14689 14.2646 6.08856 13.9166 6.08856C12.238 6.08856 10.8723 7.45425 10.8723 9.13284C10.8723 10.8114 12.238 12.1771 13.9166 12.1771C15.5952 12.1771 16.9609 10.8114 16.9609 9.13284C16.9609 8.78563 16.9028 8.44483 16.7882 8.11991C16.7083 7.89344 16.4599 7.77449 16.2334 7.85441Z" fill="white"/>
<path d="M23.6267 7.85441C23.4002 7.93432 23.2813 8.1827 23.3612 8.40922C23.4429 8.64097 23.4844 8.8844 23.4844 9.13284C23.4844 10.3318 22.5089 11.3073 21.3099 11.3073C20.1109 11.3073 19.1354 10.3318 19.1354 9.13284C19.1354 7.93383 20.1109 6.95835 21.3099 6.95835C21.5589 6.95835 21.8029 7 22.035 7.08203C22.2613 7.1621 22.5099 7.04349 22.59 6.81701C22.67 6.59054 22.5514 6.34205 22.3249 6.26198C21.9994 6.14689 21.6579 6.08856 21.3099 6.08856C19.6313 6.08856 18.2656 7.45425 18.2656 9.13284C18.2656 10.8114 19.6313 12.1771 21.3099 12.1771C22.9885 12.1771 24.3542 10.8114 24.3542 9.13284C24.3542 8.78563 24.2961 8.44483 24.1815 8.11991C24.1016 7.89344 23.8532 7.77449 23.6267 7.85441Z" fill="white"/>
</svg>
