<svg width="17" height="16" viewBox="0 0 17 16" fill="none" xmlns="http://www.w3.org/2000/svg">
<path d="M16.3074 11.7424L14.0752 9.50953C13.278 8.71208 11.9227 9.03109 11.6038 10.0677C11.3646 10.7855 10.5674 11.1842 9.84988 11.0247C8.25542 10.626 6.10289 8.5526 5.70428 6.87796C5.46511 6.16023 5.94345 5.36278 6.66095 5.12358C7.69735 4.8046 8.01625 3.44895 7.21902 2.6515L4.98677 0.418658C4.34899 -0.139553 3.39231 -0.139553 2.83425 0.418658L1.31951 1.9338C-0.195226 3.52869 1.47896 7.75515 5.22594 11.5031C8.97292 15.2511 13.1982 17.0055 14.7927 15.4106L16.3074 13.8955C16.8655 13.2575 16.8655 12.3006 16.3074 11.7424Z" fill="white"/>
</svg>
