<svg width="42" height="42" viewBox="0 0 42 42" fill="none" xmlns="http://www.w3.org/2000/svg">
<path d="M21 42C32.598 42 42 32.598 42 21C42 9.40202 32.598 0 21 0C9.40202 0 0 9.40202 0 21C0 32.598 9.40202 42 21 42Z" fill="#41B4E6"/>
<path d="M42.0005 21.0002C42.0005 20.4885 41.9813 19.9815 41.9453 19.4789L33.2418 10.7755L8.75879 20.406L18.1261 29.7734L18.249 30.2157L18.4081 30.0553L18.4087 30.056L18.249 30.2157L28.6111 40.5778C36.4468 37.5295 42.0005 29.9138 42.0005 21.0002Z" fill="#0091C8"/>
<path d="M18.9609 24.0598L28.4513 31.225L33.2419 10.7755L8.75879 20.406L16.2087 22.8736L29.805 13.7536L18.9609 24.0598Z" fill="white"/>
<path d="M16.2087 22.8736L18.2491 30.2158L18.9609 24.0598L29.805 13.7536L16.2087 22.8736Z" fill="#D2D2D7"/>
<path d="M22.0455 26.3885L18.2493 30.2158L18.9611 24.0598L22.0455 26.3885Z" fill="#B9B9BE"/>
</svg>
