<svg width="44" height="44" viewBox="0 0 44 44" fill="none" xmlns="http://www.w3.org/2000/svg">
<path d="M0 44L4.46162 31.2525C2.7482 28.1482 1.84534 24.6436 1.84534 21.0774C1.84534 15.4474 4.03769 10.1544 8.01874 6.17349C11.9998 2.19261 17.2927 0 22.9227 0C28.5527 0 33.8456 2.19235 37.8266 6.17341C41.8076 10.1545 44 15.4474 44 21.0773C44 26.7072 41.8076 32.0003 37.8266 35.9812C33.8456 39.9621 28.5526 42.1546 22.9227 42.1546C19.3563 42.1546 15.8519 41.2518 12.7475 39.5383L0 44Z" fill="#86F28B"/>
<path d="M0 44L12.7474 39.5179C15.8518 41.2392 19.3563 42.1462 22.9226 42.1462C28.5526 42.1462 33.8456 39.9437 37.8265 35.9445C41.8074 31.9453 44 26.628 44 20.9722C44 15.3164 41.8076 9.99922 37.8266 6L0 44Z" fill="#66E26F"/>
<path d="M16.5307 25.7532C21.8559 30.8468 27.8994 33.3244 30.0295 31.2869L32.6006 28.8275C33.1331 28.3182 33.1331 27.4923 32.6006 26.983L29.3867 23.9087C28.8542 23.3994 27.9908 23.3994 27.4583 23.9087L25.5299 25.7533C21.5809 23.9641 18.4012 20.9226 16.5307 17.1454L18.4591 15.3008C18.9916 14.7915 18.9916 13.9656 18.4591 13.4562L15.2451 10.382C14.7126 9.87266 13.8492 9.87266 13.3167 10.382L10.7456 12.8414C8.61541 14.8788 11.2055 20.6596 16.5307 25.7532Z" fill="white"/>
<path d="M32.612 27.3949L29.4896 24.5732C28.9723 24.1056 28.1335 24.1056 27.6162 24.5732L25.7427 26.2662C23.8246 25.4451 22.0932 24.3366 20.6142 23L17 26.2662C22.1734 30.9416 28.0448 33.2156 30.1141 31.3454L32.612 29.0881C33.1293 28.6204 33.1293 27.8624 32.612 27.3949Z" fill="#DCF4FF"/>
</svg>
